<svg width="100" height="100" viewBox="0 0 46.08 46.08" data-name="Material Expand" xmlns="http://www.w3.org/2000/svg">
  <!-- Cercle central en rouge DSFR -->
  <path fill="#E1000F" d="M23.04 12.96a10.08 10.08 0 1 0 10.08 10.08 10.091 10.091 0 0 0 -10.08 -10.08m0 17.28a7.2 7.2 0 1 1 7.2 -7.2 7.207 7.207 0 0 1 -7.2 7.2"/>
  
  <!-- Engrenage en bleu DSFR -->
  <path fill="#000091" d="M43.2 18h-5.157a15.84 15.84 0 0 0 -0.83 -2.004l3.647 -3.648a1.44 1.44 0 0 0 0 -2.036l-5.091 -5.091a1.44 1.44 0 0 0 -2.036 0l-3.647 3.646A15.84 15.84 0 0 0 28.08 8.037V2.88a1.44 1.44 0 0 0 -1.44 -1.44H19.44a1.44 1.44 0 0 0 -1.44 1.44v5.157a15.84 15.84 0 0 0 -2.005 0.829L12.348 5.221a1.44 1.44 0 0 0 -2.036 0l-5.091 5.091a1.44 1.44 0 0 0 0 2.036l3.647 3.648A15.84 15.84 0 0 0 8.037 18H2.88a1.44 1.44 0 0 0 -1.44 1.44v7.2a1.44 1.44 0 0 0 1.44 1.44h5.157a15.84 15.84 0 0 0 0.829 2.004L5.221 33.732a1.44 1.44 0 0 0 0 2.036l5.091 5.091a1.44 1.44 0 0 0 2.036 0l3.648 -3.647A15.84 15.84 0 0 0 18 38.043V43.2a1.44 1.44 0 0 0 1.44 1.44h7.2a1.44 1.44 0 0 0 1.44 -1.44v-5.157a15.84 15.84 0 0 0 2.004 -0.83l3.648 3.647a1.44 1.44 0 0 0 2.036 0l5.091 -5.091a1.44 1.44 0 0 0 0 -2.036l-3.646 -3.648A15.84 15.84 0 0 0 38.043 28.08H43.2a1.44 1.44 0 0 0 1.44 -1.44V19.44a1.44 1.44 0 0 0 -1.44 -1.44m-1.44 7.2h-4.792a1.44 1.44 0 0 0 -1.395 1.08 12.96 12.96 0 0 1 -1.379 3.331 1.44 1.44 0 0 0 0.222 1.751l3.388 3.388 -3.055 3.055 -3.388 -3.389a1.44 1.44 0 0 0 -1.75 -0.222 12.96 12.96 0 0 1 -3.331 1.38 1.44 1.44 0 0 0 -1.08 1.395V41.76h-4.32v-4.792a1.44 1.44 0 0 0 -1.08 -1.395 12.96 12.96 0 0 1 -3.331 -1.38 1.44 1.44 0 0 0 -1.75 0.222l-3.388 3.388 -3.055 -3.055 3.389 -3.388a1.44 1.44 0 0 0 0.222 -1.751 12.96 12.96 0 0 1 -1.38 -3.331 1.44 1.44 0 0 0 -1.395 -1.08H4.32v-4.32h4.792a1.44 1.44 0 0 0 1.395 -1.08 12.96 12.96 0 0 1 1.38 -3.331 1.44 1.44 0 0 0 -0.222 -1.75l-3.388 -3.388 3.055 -3.055 3.388 3.389a1.44 1.44 0 0 0 1.751 0.222 12.816 12.816 0 0 1 3.331 -1.38 1.44 1.44 0 0 0 1.08 -1.395V4.32h4.32v4.792a1.44 1.44 0 0 0 1.08 1.395 12.816 12.816 0 0 1 3.331 1.379 1.44 1.44 0 0 0 1.751 -0.222l3.388 -3.388 3.055 3.055 -3.389 3.388a1.44 1.44 0 0 0 -0.222 1.75 12.96 12.96 0 0 1 1.38 3.331 1.44 1.44 0 0 0 1.395 1.08H41.76Z"/>
  
  <!-- Détails en blanc -->
  <path fill="#FFFFFF" d="M18.72 21.6h2.88v2.88h-2.88zm5.76 0h2.88v2.88h-2.88z"/>
</svg>